<svg width="670" height="554" viewBox="0 0 670 554" fill="none" xmlns="http://www.w3.org/2000/svg">
<g clip-path="url(#clip0_1473_8299)">
<rect width="670" height="554" fill="#E4EBF1"/>
<path fill-rule="evenodd" clip-rule="evenodd" d="M338.13 531.374L209.357 411.278L8.23407 627.305L-8.09826 612.089L135.016 458.369L82.3022 409.592L4.52369 493.337L-11.827 478.141L124.11 331.776L-4.36567 211.957L-4.78883 212.411L-21.1172 197.191L207.647 -48.3972L223.975 -33.1769L101.499 98.3073L163.581 155.975L280.537 29.8379L288.719 37.4293L171.758 163.571L230.046 217.714L390.538 44.9107L275.168 -62.3797L290.364 -78.7314L405.729 28.5543L475.459 -46.5249L491.81 -31.3286L422.075 43.7557L481.05 98.6008L598.58 -27.8431L606.752 -20.2417L489.223 106.201L615.947 224.051L813.961 11.1454L830.301 26.3532L632.293 239.252L660.479 265.464C664.993 269.662 665.25 276.725 661.054 281.241C656.858 285.756 649.797 286.014 645.283 281.816L617.091 255.598L558.671 318.411C558.402 319.297 558.064 320.402 557.659 321.708C556.506 325.423 554.812 330.763 552.635 337.31C548.285 350.395 541.991 368.345 534.215 387.789C518.914 426.057 497.056 472.286 471.997 497.354C447.244 522.115 418.965 529.582 392.929 536.457L392.849 536.479C391.9 536.729 390.955 536.979 390.012 537.229C362.963 544.398 337.671 551.724 313.908 575.495L182.787 706.662L167.005 690.875L298.126 559.708C311.17 546.66 324.679 537.822 338.13 531.374ZM600.745 240.397L474.026 122.552L418.769 182L545.382 299.922L600.745 240.397ZM534.659 320.44L516.218 303.265L335.148 498.069L361.051 522.227L360.926 522.361C368.882 519.764 376.71 517.658 384.296 515.647L385.795 515.25C412.722 508.118 435.777 502.012 456.215 481.567C477.652 460.122 498.107 417.976 513.493 379.497C521.062 360.569 527.206 343.053 531.457 330.264C532.688 326.562 533.759 323.26 534.659 320.44ZM508.051 295.658L405.726 200.357L270.301 345.818L373.343 440.583L508.051 295.658ZM410.601 174.393L465.853 114.951L406.884 60.112L351.697 119.532L410.601 174.393ZM336.506 135.889L389.391 185.143L349.23 228.28L296.787 178.654L336.506 135.889ZM289.191 186.833L341.625 236.449L249.304 335.611L196.391 286.752L289.191 186.833ZM188.796 294.93L241.698 343.78L208.243 379.715L155.626 330.644L188.796 294.93ZM140.435 347L193.032 396.053L150.226 442.031L97.4933 393.236L140.435 347ZM262.695 353.987L224.567 394.94L326.985 490.456L365.744 448.758L262.695 353.987ZM222.45 225.892L139.301 315.419L50.2618 232.38L133.339 143.117L222.45 225.892ZM125.162 135.522L42.0996 224.768L10.8494 195.623L93.891 106.474L125.162 135.522Z" fill="white"/>
<path d="M136.5 165.5L217 238L136.5 331.5L207.5 398L406 188L545.5 314L637 218.5" stroke="#A9C398" stroke-width="5"/>
<path d="M155.695 141.691C155.695 156.584 136.552 169.349 136.552 169.349C136.552 169.349 117.409 156.584 117.409 141.691C117.409 136.613 119.426 131.743 123.016 128.152C126.606 124.561 131.475 122.544 136.552 122.544C141.629 122.544 146.498 124.561 150.088 128.152C153.678 131.743 155.695 136.613 155.695 141.691Z" fill="white" stroke="#F8B46E" stroke-width="2" stroke-linecap="round" stroke-linejoin="round"/>
<path d="M193.981 371.461C193.981 386.353 174.838 399.118 174.838 399.118C174.838 399.118 155.695 386.353 155.695 371.461C155.695 366.383 157.712 361.512 161.302 357.922C164.892 354.331 169.761 352.313 174.838 352.313C179.915 352.313 184.784 354.331 188.374 357.922C191.964 361.512 193.981 366.383 193.981 371.461Z" fill="white" stroke="#F8B46E" stroke-width="2" stroke-linecap="round" stroke-linejoin="round"/>
<path d="M418.59 205.516C418.59 220.409 399.448 233.174 399.448 233.174C399.448 233.174 380.305 220.409 380.305 205.516C380.305 200.438 382.322 195.568 385.911 191.977C389.501 188.386 394.371 186.369 399.448 186.369C404.525 186.369 409.394 188.386 412.984 191.977C416.574 195.568 418.59 200.438 418.59 205.516Z" fill="white" stroke="#F8B46E" stroke-width="2" stroke-linecap="round" stroke-linejoin="round"/>
<path d="M631.714 181.263C631.714 196.155 612.572 208.92 612.572 208.92C612.572 208.92 593.429 196.155 593.429 181.263C593.429 176.184 595.446 171.314 599.036 167.723C602.626 164.133 607.495 162.115 612.572 162.115C617.649 162.115 622.518 164.133 626.108 167.723C629.698 171.314 631.714 176.184 631.714 181.263Z" fill="white" stroke="#F8B46E" stroke-width="2" stroke-linecap="round" stroke-linejoin="round"/>
<path d="M137.626 148.479H135.891V138.894H135.829L133.133 140.659V139.011L135.938 137.167H137.626V148.479Z" fill="black"/>
<path d="M607.613 184.449L612.597 176.738H613.691V178.785H612.98L609.41 184.293V184.387H616.269V185.84H607.613V184.449ZM613.097 185.426L613.105 184.785V176.738H614.738V188.051H613.097V185.426Z" fill="black"/>
<path d="M398.817 212.46C398.051 212.46 397.364 212.33 396.755 212.07C396.145 211.809 395.666 211.445 395.317 210.976C394.968 210.502 394.781 209.958 394.755 209.343H396.489C396.515 209.661 396.632 209.945 396.841 210.195C397.049 210.445 397.325 210.638 397.669 210.773C398.012 210.908 398.393 210.976 398.809 210.976C399.257 210.976 399.663 210.898 400.028 210.742C400.393 210.58 400.674 210.364 400.872 210.093C401.07 209.817 401.169 209.5 401.169 209.14C401.169 208.76 401.07 208.424 400.872 208.132C400.674 207.841 400.382 207.614 399.997 207.453C399.617 207.291 399.158 207.21 398.622 207.21H397.653V205.812H398.622C399.049 205.812 399.429 205.736 399.762 205.585C400.096 205.434 400.354 205.223 400.536 204.953C400.718 204.682 400.807 204.369 400.801 204.015C400.807 203.671 400.729 203.367 400.567 203.101C400.406 202.835 400.176 202.632 399.88 202.492C399.583 202.346 399.239 202.273 398.848 202.273C398.463 202.273 398.106 202.341 397.778 202.476C397.45 202.611 397.182 202.804 396.973 203.054C396.77 203.304 396.661 203.598 396.645 203.937H394.989C395.015 203.333 395.2 202.796 395.544 202.328C395.893 201.854 396.356 201.486 396.934 201.226C397.518 200.966 398.158 200.835 398.856 200.835C399.58 200.835 400.216 200.973 400.762 201.25C401.314 201.52 401.739 201.89 402.036 202.359C402.333 202.828 402.476 203.346 402.466 203.914C402.476 204.33 402.398 204.713 402.231 205.062C402.07 205.406 401.835 205.695 401.528 205.929C401.226 206.158 400.872 206.322 400.466 206.421V206.507C400.976 206.575 401.413 206.734 401.778 206.984C402.148 207.229 402.429 207.539 402.622 207.914C402.814 208.289 402.906 208.716 402.895 209.195C402.906 209.809 402.734 210.367 402.38 210.867C402.025 211.361 401.536 211.752 400.911 212.039C400.286 212.32 399.588 212.46 398.817 212.46Z" fill="black"/>
<path d="M171.711 376.999L175.64 373.038C176.114 372.549 176.479 372.153 176.734 371.851C176.989 371.549 177.179 371.252 177.304 370.96C177.435 370.663 177.5 370.356 177.5 370.038C177.5 369.679 177.409 369.361 177.226 369.085C177.044 368.809 176.794 368.595 176.476 368.444C176.159 368.293 175.802 368.218 175.406 368.218C174.994 368.218 174.633 368.301 174.32 368.468C174.013 368.629 173.773 368.864 173.601 369.171C173.435 369.473 173.351 369.822 173.351 370.218H171.718C171.718 369.541 171.877 368.942 172.195 368.421C172.513 367.9 172.953 367.496 173.515 367.21C174.083 366.924 174.726 366.78 175.445 366.78C176.159 366.78 176.794 366.921 177.351 367.202C177.909 367.478 178.343 367.861 178.656 368.351C178.974 368.835 179.133 369.379 179.133 369.983C179.133 370.416 179.052 370.832 178.89 371.233C178.729 371.634 178.455 372.077 178.07 372.562C177.685 373.046 177.133 373.642 176.414 374.351L174.109 376.687V376.772H179.32V378.249H171.718L171.711 376.999Z" fill="black"/>
<path fill-rule="evenodd" clip-rule="evenodd" d="M629.02 40.5998H627.5V42.4998H629.02C629.59 42.4998 629.97 42.1198 629.97 41.5498C629.97 40.9798 629.59 40.5998 629.02 40.5998ZM638.9 17.7998H623.7V48.1998H648.4V27.2998L638.9 17.7998ZM631.68 41.7398C631.68 43.2598 630.54 44.3998 629.02 44.3998H627.5V46.2998H625.6V38.6998H629.02C630.54 38.6998 631.68 39.8398 631.68 41.3598V41.7398ZM639.47 42.6898C639.47 44.5898 637.95 46.2998 635.86 46.2998H633.2V38.6998H635.86C637.76 38.6998 639.47 40.2198 639.47 42.3098V42.6898ZM646.5 40.5998H642.7V42.4998H645.55V44.3998H642.7V46.2998H640.8V38.6998H646.5V40.5998ZM646.5 36.7998H625.6V19.6998H638.9V27.2998H646.5V36.7998ZM635.86 40.5998H635.1V44.3998H635.86C637 44.3998 637.76 43.6398 637.76 42.4998C637.76 41.3598 636.81 40.5998 635.86 40.5998Z" fill="black"/>
<rect x="129" y="75" width="12" height="32" stroke="#FF0000" stroke-width="12"/>
<path d="M134.998 104.358C133.157 104.358 131.521 104.043 130.089 103.412C128.666 102.781 127.541 101.903 126.714 100.778C125.888 99.6534 125.449 98.3537 125.398 96.8793H130.204C130.247 97.5866 130.481 98.2045 130.907 98.733C131.334 99.2528 131.9 99.6577 132.608 99.9474C133.315 100.237 134.108 100.382 134.986 100.382C135.923 100.382 136.754 100.22 137.479 99.8963C138.203 99.5639 138.77 99.1037 139.179 98.5156C139.588 97.9276 139.788 97.25 139.78 96.483C139.788 95.6903 139.584 94.9915 139.166 94.3864C138.748 93.7812 138.143 93.3082 137.351 92.9673C136.567 92.6264 135.621 92.456 134.513 92.456H132.199V88.7997H134.513C135.425 88.7997 136.221 88.642 136.903 88.3267C137.594 88.0114 138.135 87.5682 138.527 86.9972C138.919 86.4176 139.111 85.7486 139.102 84.9901C139.111 84.2486 138.944 83.6051 138.604 83.0597C138.271 82.5057 137.798 82.0753 137.184 81.7685C136.579 81.4616 135.868 81.3082 135.05 81.3082C134.248 81.3082 133.507 81.4531 132.825 81.7429C132.143 82.0327 131.594 82.446 131.176 82.983C130.758 83.5114 130.537 84.142 130.511 84.875H125.947C125.981 83.4091 126.403 82.1222 127.213 81.0142C128.031 79.8977 129.122 79.0284 130.486 78.4062C131.849 77.7756 133.379 77.4602 135.075 77.4602C136.822 77.4602 138.339 77.7884 139.626 78.4446C140.922 79.0923 141.923 79.9659 142.631 81.0653C143.338 82.1648 143.692 83.3793 143.692 84.7088C143.7 86.1832 143.265 87.419 142.388 88.4162C141.518 89.4134 140.376 90.0653 138.961 90.3722V90.5767C140.802 90.8324 142.213 91.5142 143.193 92.6222C144.182 93.7216 144.672 95.0895 144.663 96.7259C144.663 98.1918 144.246 99.5043 143.41 100.663C142.584 101.814 141.442 102.717 139.984 103.374C138.535 104.03 136.873 104.358 134.998 104.358Z" fill="white"/>
</g>
<defs>
<clipPath id="clip0_1473_8299">
<rect width="670" height="554" fill="white"/>
</clipPath>
</defs>
</svg>
