<svg width="28" height="24" viewBox="0 0 28 24" fill="none" xmlns="http://www.w3.org/2000/svg">
<path d="M27.125 7.50781C27.125 15.9844 14.5567 22.8455 14.0214 23.1289C13.8804 23.2048 13.7227 23.2445 13.5625 23.2445C13.4023 23.2445 13.2446 23.2048 13.1036 23.1289C12.5683 22.8455 0 15.9844 0 7.50781C0.00224355 5.51731 0.793963 3.60897 2.20147 2.20147C3.60897 0.793963 5.51731 0.00224355 7.50781 0C10.0084 0 12.1978 1.07531 13.5625 2.89293C14.9272 1.07531 17.1166 0 19.6172 0C21.6077 0.00224355 23.516 0.793963 24.9235 2.20147C26.331 3.60897 27.1228 5.51731 27.125 7.50781Z" fill="#FF0000"/>
</svg>
