<svg width="28" height="26" viewBox="0 0 28 26" fill="none" xmlns="http://www.w3.org/2000/svg">
<path d="M20.3636 0C17.6909 0 15.3669 1.30951 14 3.50401C12.6331 1.30951 10.3091 0 7.63636 0C5.6118 0.00256179 3.67083 0.877507 2.23924 2.4329C0.807658 3.98829 0.00235787 6.09713 0 8.29678C0 12.3345 2.31636 16.5369 6.88545 20.7848C8.97916 22.7232 11.2408 24.4366 13.6385 25.9012C13.7497 25.966 13.8739 26 14 26C14.1261 26 14.2503 25.966 14.3615 25.9012C16.7592 24.4366 19.0208 22.7232 21.1145 20.7848C25.6836 16.5369 28 12.3345 28 8.29678C27.9976 6.09713 27.1923 3.98829 25.7608 2.4329C24.3292 0.877507 22.3882 0.00256179 20.3636 0ZM14 24.2142C11.9115 22.9046 1.52727 16.0017 1.52727 8.29678C1.52896 6.53699 2.17313 4.8498 3.31844 3.60544C4.46376 2.36107 6.01665 1.66119 7.63636 1.65936C10.2175 1.65936 12.3849 3.15693 13.2936 5.56852C13.3512 5.7207 13.449 5.85085 13.5748 5.94245C13.7006 6.03405 13.8486 6.08295 14 6.08295C14.1514 6.08295 14.2994 6.03405 14.4252 5.94245C14.551 5.85085 14.6488 5.7207 14.7064 5.56852C15.6151 3.15693 17.7825 1.65936 20.3636 1.65936C21.9834 1.66119 23.5362 2.36107 24.6816 3.60544C25.8269 4.8498 26.471 6.53699 26.4727 8.29678C26.4727 16.0017 16.0885 22.9046 14 24.2142Z" fill="black"/>
</svg>
