<svg width="1192" height="1385" viewBox="0 0 1192 1385" fill="none" xmlns="http://www.w3.org/2000/svg">
<path d="M825.286 22.1475C825.286 37.0399 806.143 49.8049 806.143 49.8049C806.143 49.8049 787 37.0399 787 22.1475C787 17.0692 789.017 12.199 792.607 8.60816C796.197 5.01732 801.066 3 806.143 3C811.22 3 816.089 5.01732 819.679 8.60816C823.269 12.199 825.286 17.0692 825.286 22.1475Z" stroke="#F8B46E" stroke-width="5" stroke-linecap="round" stroke-linejoin="round"/>
<path d="M808.492 28.9355H806.758V19.3496H806.695L804 21.1152V19.4668L806.804 17.623H808.492V28.9355Z" fill="black"/>
<g filter="url(#filter0_d_488_4605)">
<path d="M569 1313.14C569 1313.14 610.727 1242.72 654.252 1238.22C718.717 1231.54 692.782 1381.87 756.943 1372.59C793.549 1367.29 857 1313.14 857 1313.14H1143" stroke="white" stroke-width="8" stroke-dasharray="20 20"/>
</g>
<g filter="url(#filter1_d_488_4605)">
<path d="M806 51.4998C806 51.4998 510.089 -1.50777 376 154.5C272 275.5 37.5098 203.163 14 260C-24.6099 353.343 156 398 156 398C156 398 444.997 310.946 588 427C752.5 560.5 925 424 976 506C1027 588 776 650 776 650C776 650 243.038 693.322 156 836C101.938 924.622 309 870.5 348 930C389.149 992.779 88 1024.5 88 1024.5" stroke="white" stroke-width="8" stroke-linejoin="round" stroke-dasharray="20 20"/>
</g>
<g filter="url(#filter2_d_488_4605)">
<circle cx="158" cy="399" r="15" fill="white"/>
</g>
<g filter="url(#filter3_d_488_4605)">
<circle cx="774" cy="646" r="15" fill="white"/>
</g>
<g filter="url(#filter4_d_488_4605)">
<circle cx="89" cy="1025" r="15" fill="white"/>
</g>
<g filter="url(#filter5_d_488_4605)">
<circle cx="807" cy="54" r="15" fill="white"/>
</g>
<path d="M107.286 995.147C107.286 1010.04 88.1429 1022.8 88.1429 1022.8C88.1429 1022.8 69 1010.04 69 995.147C69 990.069 71.0168 985.199 74.6068 981.608C78.1968 978.017 83.0659 976 88.1429 976C93.2199 976 98.0889 978.017 101.679 981.608C105.269 985.199 107.286 990.069 107.286 995.147Z" stroke="#F8B46E" stroke-width="5" stroke-linecap="round" stroke-linejoin="round"/>
<path d="M84.4606 998.334L89.445 990.623H90.5388V992.67H89.8278L86.2575 998.178V998.271H93.1169V999.725H84.4606V998.334ZM89.945 999.311L89.9528 998.67V990.623H91.5856V1001.94H89.945V999.311Z" fill="black"/>
<path d="M792.286 611.147C792.286 626.04 773.143 638.805 773.143 638.805C773.143 638.805 754 626.04 754 611.147C754 606.069 756.017 601.199 759.607 597.608C763.197 594.017 768.066 592 773.143 592C778.22 592 783.089 594.017 786.679 597.608C790.269 601.199 792.286 606.069 792.286 611.147Z" stroke="#F8B46E" stroke-width="5" stroke-linecap="round" stroke-linejoin="round"/>
<path d="M773.789 618.092C773.023 618.092 772.336 617.962 771.726 617.701C771.117 617.441 770.638 617.076 770.289 616.607C769.94 616.133 769.752 615.589 769.726 614.975H771.461C771.487 615.292 771.604 615.576 771.812 615.826C772.021 616.076 772.297 616.269 772.64 616.404C772.984 616.54 773.364 616.607 773.781 616.607C774.229 616.607 774.635 616.529 775 616.373C775.364 616.212 775.646 615.995 775.843 615.725C776.041 615.449 776.14 615.131 776.14 614.771C776.14 614.391 776.041 614.055 775.843 613.764C775.646 613.472 775.354 613.245 774.968 613.084C774.588 612.923 774.13 612.842 773.593 612.842H772.625V611.443H773.593C774.021 611.443 774.401 611.368 774.734 611.217C775.067 611.066 775.325 610.855 775.508 610.584C775.69 610.313 775.778 610.001 775.773 609.646C775.778 609.303 775.7 608.998 775.539 608.732C775.377 608.467 775.148 608.264 774.851 608.123C774.554 607.977 774.211 607.904 773.82 607.904C773.435 607.904 773.078 607.972 772.75 608.107C772.422 608.243 772.153 608.436 771.945 608.686C771.742 608.936 771.633 609.23 771.617 609.568H769.961C769.987 608.964 770.172 608.428 770.515 607.959C770.864 607.485 771.328 607.118 771.906 606.857C772.489 606.597 773.13 606.467 773.828 606.467C774.552 606.467 775.187 606.605 775.734 606.881C776.286 607.152 776.711 607.521 777.008 607.99C777.304 608.459 777.448 608.977 777.437 609.545C777.448 609.962 777.369 610.344 777.203 610.693C777.041 611.037 776.807 611.326 776.5 611.561C776.198 611.79 775.843 611.954 775.437 612.053V612.139C775.948 612.206 776.385 612.365 776.75 612.615C777.119 612.86 777.401 613.17 777.593 613.545C777.786 613.92 777.877 614.347 777.867 614.826C777.877 615.441 777.705 615.998 777.351 616.498C776.997 616.993 776.508 617.383 775.883 617.67C775.258 617.951 774.56 618.092 773.789 618.092Z" fill="black"/>
<path d="M176.286 367.147C176.286 382.04 157.143 394.805 157.143 394.805C157.143 394.805 138 382.04 138 367.147C138 362.069 140.017 357.199 143.607 353.608C147.197 350.017 152.066 348 157.143 348C162.22 348 167.089 350.017 170.679 353.608C174.269 357.199 176.286 362.069 176.286 367.147Z" stroke="#F8B46E" stroke-width="5" stroke-linecap="round" stroke-linejoin="round"/>
<path d="M154.015 372.686L157.945 368.725C158.419 368.235 158.784 367.839 159.039 367.537C159.294 367.235 159.484 366.938 159.609 366.646C159.739 366.35 159.804 366.042 159.804 365.725C159.804 365.365 159.713 365.048 159.531 364.771C159.349 364.495 159.099 364.282 158.781 364.131C158.463 363.98 158.106 363.904 157.711 363.904C157.299 363.904 156.937 363.988 156.625 364.154C156.317 364.316 156.078 364.55 155.906 364.857C155.739 365.16 155.656 365.508 155.656 365.904H154.023C154.023 365.227 154.182 364.628 154.5 364.107C154.817 363.587 155.258 363.183 155.82 362.896C156.388 362.61 157.031 362.467 157.75 362.467C158.463 362.467 159.099 362.607 159.656 362.889C160.213 363.165 160.648 363.548 160.961 364.037C161.278 364.521 161.437 365.066 161.437 365.67C161.437 366.102 161.356 366.519 161.195 366.92C161.034 367.321 160.76 367.764 160.375 368.248C159.989 368.732 159.437 369.329 158.718 370.037L156.414 372.373V372.459H161.625V373.936H154.023L154.015 372.686Z" fill="black"/>
<g filter="url(#filter6_d_488_4605)">
<path d="M1159.95 1313.21H1185.43M1159.95 1313.21L1155.9 1325.37C1155.84 1325.53 1155.83 1325.71 1155.87 1325.88C1155.9 1326.04 1155.99 1326.2 1156.11 1326.32C1156.23 1326.44 1156.38 1326.53 1156.55 1326.56C1156.72 1326.6 1156.9 1326.59 1157.06 1326.53L1185.43 1313.21M1159.95 1313.21L1155.9 1301.06C1155.84 1300.89 1155.83 1300.72 1155.87 1300.55C1155.9 1300.38 1155.99 1300.23 1156.11 1300.11C1156.23 1299.98 1156.38 1299.9 1156.55 1299.86C1156.72 1299.83 1156.9 1299.84 1157.06 1299.9L1185.43 1313.21" stroke="white" stroke-width="4" stroke-linecap="round" stroke-linejoin="round" shape-rendering="crispEdges"/>
</g>
<defs>
<filter id="filter0_d_488_4605" x="561.559" y="1234" width="585.441" height="151" filterUnits="userSpaceOnUse" color-interpolation-filters="sRGB">
<feFlood flood-opacity="0" result="BackgroundImageFix"/>
<feColorMatrix in="SourceAlpha" type="matrix" values="0 0 0 0 0 0 0 0 0 0 0 0 0 0 0 0 0 0 127 0" result="hardAlpha"/>
<feOffset dy="4"/>
<feGaussianBlur stdDeviation="2"/>
<feComposite in2="hardAlpha" operator="out"/>
<feColorMatrix type="matrix" values="0 0 0 0 0 0 0 0 0 0 0 0 0 0 0 0 0 0 0.25 0"/>
<feBlend mode="normal" in2="BackgroundImageFix" result="effect1_dropShadow_488_4605"/>
<feBlend mode="normal" in="SourceGraphic" in2="effect1_dropShadow_488_4605" result="shape"/>
</filter>
<filter id="filter1_d_488_4605" x="0.608887" y="38.8223" width="989.697" height="997.656" filterUnits="userSpaceOnUse" color-interpolation-filters="sRGB">
<feFlood flood-opacity="0" result="BackgroundImageFix"/>
<feColorMatrix in="SourceAlpha" type="matrix" values="0 0 0 0 0 0 0 0 0 0 0 0 0 0 0 0 0 0 127 0" result="hardAlpha"/>
<feOffset dy="4"/>
<feGaussianBlur stdDeviation="2"/>
<feComposite in2="hardAlpha" operator="out"/>
<feColorMatrix type="matrix" values="0 0 0 0 0 0 0 0 0 0 0 0 0 0 0 0 0 0 0.25 0"/>
<feBlend mode="normal" in2="BackgroundImageFix" result="effect1_dropShadow_488_4605"/>
<feBlend mode="normal" in="SourceGraphic" in2="effect1_dropShadow_488_4605" result="shape"/>
</filter>
<filter id="filter2_d_488_4605" x="139" y="384" width="38" height="38" filterUnits="userSpaceOnUse" color-interpolation-filters="sRGB">
<feFlood flood-opacity="0" result="BackgroundImageFix"/>
<feColorMatrix in="SourceAlpha" type="matrix" values="0 0 0 0 0 0 0 0 0 0 0 0 0 0 0 0 0 0 127 0" result="hardAlpha"/>
<feOffset dy="4"/>
<feGaussianBlur stdDeviation="2"/>
<feComposite in2="hardAlpha" operator="out"/>
<feColorMatrix type="matrix" values="0 0 0 0 0 0 0 0 0 0 0 0 0 0 0 0 0 0 0.5 0"/>
<feBlend mode="normal" in2="BackgroundImageFix" result="effect1_dropShadow_488_4605"/>
<feBlend mode="normal" in="SourceGraphic" in2="effect1_dropShadow_488_4605" result="shape"/>
</filter>
<filter id="filter3_d_488_4605" x="755" y="631" width="38" height="38" filterUnits="userSpaceOnUse" color-interpolation-filters="sRGB">
<feFlood flood-opacity="0" result="BackgroundImageFix"/>
<feColorMatrix in="SourceAlpha" type="matrix" values="0 0 0 0 0 0 0 0 0 0 0 0 0 0 0 0 0 0 127 0" result="hardAlpha"/>
<feOffset dy="4"/>
<feGaussianBlur stdDeviation="2"/>
<feComposite in2="hardAlpha" operator="out"/>
<feColorMatrix type="matrix" values="0 0 0 0 0 0 0 0 0 0 0 0 0 0 0 0 0 0 0.5 0"/>
<feBlend mode="normal" in2="BackgroundImageFix" result="effect1_dropShadow_488_4605"/>
<feBlend mode="normal" in="SourceGraphic" in2="effect1_dropShadow_488_4605" result="shape"/>
</filter>
<filter id="filter4_d_488_4605" x="70" y="1010" width="38" height="38" filterUnits="userSpaceOnUse" color-interpolation-filters="sRGB">
<feFlood flood-opacity="0" result="BackgroundImageFix"/>
<feColorMatrix in="SourceAlpha" type="matrix" values="0 0 0 0 0 0 0 0 0 0 0 0 0 0 0 0 0 0 127 0" result="hardAlpha"/>
<feOffset dy="4"/>
<feGaussianBlur stdDeviation="2"/>
<feComposite in2="hardAlpha" operator="out"/>
<feColorMatrix type="matrix" values="0 0 0 0 0 0 0 0 0 0 0 0 0 0 0 0 0 0 0.5 0"/>
<feBlend mode="normal" in2="BackgroundImageFix" result="effect1_dropShadow_488_4605"/>
<feBlend mode="normal" in="SourceGraphic" in2="effect1_dropShadow_488_4605" result="shape"/>
</filter>
<filter id="filter5_d_488_4605" x="788" y="39" width="38" height="38" filterUnits="userSpaceOnUse" color-interpolation-filters="sRGB">
<feFlood flood-opacity="0" result="BackgroundImageFix"/>
<feColorMatrix in="SourceAlpha" type="matrix" values="0 0 0 0 0 0 0 0 0 0 0 0 0 0 0 0 0 0 127 0" result="hardAlpha"/>
<feOffset dy="4"/>
<feGaussianBlur stdDeviation="2"/>
<feComposite in2="hardAlpha" operator="out"/>
<feColorMatrix type="matrix" values="0 0 0 0 0 0 0 0 0 0 0 0 0 0 0 0 0 0 0.5 0"/>
<feBlend mode="normal" in2="BackgroundImageFix" result="effect1_dropShadow_488_4605"/>
<feBlend mode="normal" in="SourceGraphic" in2="effect1_dropShadow_488_4605" result="shape"/>
</filter>
<filter id="filter6_d_488_4605" x="1149.84" y="1297.84" width="41.582" height="38.7437" filterUnits="userSpaceOnUse" color-interpolation-filters="sRGB">
<feFlood flood-opacity="0" result="BackgroundImageFix"/>
<feColorMatrix in="SourceAlpha" type="matrix" values="0 0 0 0 0 0 0 0 0 0 0 0 0 0 0 0 0 0 127 0" result="hardAlpha"/>
<feOffset dy="4"/>
<feGaussianBlur stdDeviation="2"/>
<feComposite in2="hardAlpha" operator="out"/>
<feColorMatrix type="matrix" values="0 0 0 0 0 0 0 0 0 0 0 0 0 0 0 0 0 0 0.25 0"/>
<feBlend mode="normal" in2="BackgroundImageFix" result="effect1_dropShadow_488_4605"/>
<feBlend mode="normal" in="SourceGraphic" in2="effect1_dropShadow_488_4605" result="shape"/>
</filter>
</defs>
</svg>
