<svg width="706" height="320" viewBox="0 0 706 320" fill="none" xmlns="http://www.w3.org/2000/svg">
<path fill-rule="evenodd" clip-rule="evenodd" d="M632.812 319.412C730.67 319.412 810 247.909 810 159.706C810 71.5028 730.67 0 632.812 0C555.132 0 489.127 45.0558 465.21 107.755C450.174 94.6577 428.761 86.4706 405 86.4706C375.914 86.4706 350.348 98.738 335.687 117.263C322.064 73.7004 273.377 41.4706 215.404 41.4706C146.876 41.4706 91.3236 86.5055 91.3236 142.059C91.3236 152.184 93.1689 161.959 96.6018 171.177H74.1177C33.1836 171.177 0 204.36 0 245.294C0 286.228 33.1836 319.412 74.1177 319.412H626.691C627.47 319.412 628.247 319.4 629.02 319.376C630.281 319.4 631.545 319.412 632.812 319.412Z" fill="url(#paint0_linear_1271_8200)"/>
<defs>
<linearGradient id="paint0_linear_1271_8200" x1="405" y1="0" x2="405" y2="319.412" gradientUnits="userSpaceOnUse">
<stop stop-color="white"/>
<stop offset="1" stop-color="#EDF6FF"/>
</linearGradient>
</defs>
</svg>
