<svg width="659" height="268" viewBox="0 0 659 268" fill="none" xmlns="http://www.w3.org/2000/svg">
<path fill-rule="evenodd" clip-rule="evenodd" d="M102.75 268C16.7316 268 -53 208.006 -53 134C-53 59.9938 16.7316 0 102.75 0C160.92 0 211.642 27.436 238.387 68.0878C252.923 56.5679 272.543 49.5035 294.133 49.5035C326.784 49.5035 354.93 65.6607 367.799 88.9513C383.514 57.278 423.193 34.7956 469.657 34.7956C529.894 34.7956 578.725 72.5818 578.725 119.193C578.725 127.689 577.103 135.891 574.086 143.624H596.812C631.158 143.624 659 171.467 659 205.812C659 240.158 631.158 268 596.812 268H105.168C105.018 268 104.867 268 104.717 267.998C104.568 267.997 104.42 267.996 104.272 267.994C103.765 267.998 103.258 268 102.75 268Z" fill="url(#paint0_linear_1271_8222)"/>
<defs>
<linearGradient id="paint0_linear_1271_8222" x1="303" y1="0" x2="303" y2="268" gradientUnits="userSpaceOnUse">
<stop stop-color="white"/>
<stop offset="1" stop-color="#E4EBF1"/>
</linearGradient>
</defs>
</svg>
