<svg width="20" height="34" viewBox="0 0 20 34" fill="none" xmlns="http://www.w3.org/2000/svg">
<path d="M19.1118 33.0213C19.3933 32.7404 19.6167 32.4066 19.7691 32.0392C19.9215 31.6717 20 31.2779 20 30.8801C20 30.4823 19.9215 30.0884 19.7691 29.721C19.6167 29.3536 19.3933 29.0198 19.1118 28.7388L7.32721 16.9543L19.1118 5.16969C19.6797 4.60179 19.9987 3.83156 19.9987 3.02843C19.9987 2.2253 19.6797 1.45505 19.1118 0.887154C18.5439 0.319256 17.7736 0.000217438 16.9705 0.000217438C16.1674 0.000217438 15.3971 0.319256 14.8292 0.887154L0.888226 14.8282C0.606661 15.1092 0.383278 15.4429 0.230864 15.8103C0.0784492 16.1778 0 16.5717 0 16.9694C0 17.3672 0.0784492 17.7611 0.230864 18.1285C0.383278 18.496 0.606661 18.8297 0.888226 19.1107L14.8292 33.0517C15.9834 34.2059 17.9272 34.2059 19.1118 33.0213Z" fill="black"/>
</svg>
