<svg width="20" height="34" viewBox="0 0 20 34" fill="none" xmlns="http://www.w3.org/2000/svg">
<path d="M0.888228 0.892232C0.606664 1.17322 0.383281 1.50698 0.230867 1.87441C0.078453 2.24183 0 2.63571 0 3.0335C0 3.43128 0.078453 3.82516 0.230867 4.19259C0.383281 4.56002 0.606664 4.89378 0.888228 5.17476L12.6728 16.9593L0.888228 28.7439C0.320329 29.3118 0.00128607 30.082 0.00128607 30.8851C0.00128607 31.6883 0.320329 32.4585 0.888228 33.0264C1.45613 33.5943 2.22636 33.9134 3.0295 33.9134C3.83263 33.9134 4.60286 33.5943 5.17076 33.0264L19.1118 19.0854C19.3933 18.8044 19.6167 18.4707 19.7691 18.1032C19.9216 17.7358 20 17.3419 20 16.9441C20 16.5464 19.9216 16.1525 19.7691 15.785C19.6167 15.4176 19.3933 15.0839 19.1118 14.8029L5.17076 0.861858C4.0166 -0.292299 2.07276 -0.292299 0.888228 0.892232Z" fill="black"/>
</svg>
