<svg width="68" height="68" viewBox="0 0 68 68" fill="none" xmlns="http://www.w3.org/2000/svg">
<circle cx="34" cy="34" r="34" fill="white"/>
<path fill-rule="evenodd" clip-rule="evenodd" d="M28.6667 26.2222C28.6667 24.572 29.2286 22.9893 30.2288 21.8224C31.229 20.6556 32.5855 20 34 20C35.4145 20 36.771 20.6556 37.7712 21.8224C38.7714 22.9893 39.3333 24.572 39.3333 26.2222C39.3333 27.8725 38.7714 29.4551 37.7712 30.622C36.771 31.7889 35.4145 32.4444 34 32.4444C32.5855 32.4444 31.229 31.7889 30.2288 30.622C29.2286 29.4551 28.6667 27.8725 28.6667 26.2222ZM28.6667 35.5556C26.8986 35.5556 25.2029 36.375 23.9526 37.8336C22.7024 39.2922 22 41.2705 22 43.3333C22 44.571 22.4214 45.758 23.1716 46.6332C23.9217 47.5083 24.9391 48 26 48H42C43.0609 48 44.0783 47.5083 44.8284 46.6332C45.5786 45.758 46 44.571 46 43.3333C46 41.2705 45.2976 39.2922 44.0474 37.8336C42.7971 36.375 41.1014 35.5556 39.3333 35.5556H28.6667Z" fill="black"/>
</svg>
